<mxfile host="app.diagrams.net" modified="2023-12-03T16:36:28.697Z" agent="Mozilla/5.0 (Windows NT 10.0; Win64; x64) AppleWebKit/537.36 (KHTML, like Gecko) Chrome/119.0.0.0 Safari/537.36" version="22.1.5" etag="vdILlC4mGYK3h6ds0MPf" type="github">
  <diagram name="Page-1" id="brBbWEjMjT2jyzwAdQh4">
    <mxGraphModel>
      <root>
        <mxCell id="0" />
        <mxCell id="1" parent="0" />
      </root>
    </mxGraphModel>
  </diagram>
</mxfile>
